<svg class="single-object_choose_svg" width="1562" xmlns="http://www.w3.org/2000/svg" version="1.1"
     xmlns:xlink="http://www.w3.org/1999/xlink" viewBox="0 0 1562 858">

    <image class="single-object_choose_svg_main-image" xlink:href="img/single-object/slide-image.png" x="0" y="0"
           width="1562" height="858"/>

    <g class="single-object_choose_svg_group" data-href="/section.html">
        <path class="single-object_choose_svg_path" d="M504.904296875 307.8436944937833 L260.841796875 332.2273534635879 L257.791015625 493.76909413854355 L503.37890625 515.1047957371226 L642.189453125 498.3410301953819 L637.61328125 329.17939609236237 Z" fill="rgba(255,0,0,0.4)" /><g class="single-object_choose_svg_description"><path d="M174.572265625 388.4448002401621 L274.572265625 388.4448002401621 L274.572265625 408.42628774422735 L281.572265625 415.4198083706502 L274.572265625 422.413328997073 L274.572265625 442.3948165011382 L174.57226562500003 442.3948165011382 Z" /><text transform="translate(184.572265625 408.42628774422735)" x="0" y="0"><tspan class="stage" x="0">sadfg</tspan><tspan x="0" dy="1.2em">планировки</tspan><tspan x="0" dy="1.2em">типового этажа</tspan></text></g>
    </g>

    <g class="single-object_choose_svg_group" data-href="/section.html">
        <path class="single-object_choose_svg_path" d="M256.265625 185.9253996447602 L256.265625 330.70337477797517 L504.904296875 306.31971580817054 L643.71484375 327.6554174067495 L648.291015625 176.78152753108347 L504.904296875 121.91829484902308 Z" fill="rgba(0,255,28,0.4)" /><g class="single-object_choose_svg_description"><path d="M168.470703125 226.9030595652065 L268.470703125 226.9030595652065 L268.470703125 246.88454706927178 L275.470703125 253.8780676956946 L268.470703125 260.8715883221174 L268.470703125 280.85307582618265 L168.47070312500003 280.85307582618265 Z" /><text transform="translate(178.470703125 246.88454706927178)" x="0" y="0"><tspan class="stage" x="0">Секция 2</tspan><tspan x="0" dy="1.2em">планировки</tspan><tspan x="0" dy="1.2em">типового этажа</tspan></text></g>
    </g>
</svg>